<?xml version="1.0" encoding="utf-8"?>
<!-- Generator: Adobe Illustrator 29.5.0, SVG Export Plug-In . SVG Version: 9.03 Build 0)  -->
<svg version="1.0" id="katman_1" xmlns="http://www.w3.org/2000/svg" xmlns:xlink="http://www.w3.org/1999/xlink" x="0px" y="0px"
	 viewBox="0 0 675.65 99.48" style="enable-background:new 0 0 675.65 99.48;" xml:space="preserve">
<style type="text/css">
	.st0{fill:#E87CB4;}
</style>
<g>
	<path class="st0" d="M178.14,63c-0.3-0.31-0.09-0.84,0.35-0.84h1.86c0,0,0.09,0,0.13,0c16.25-1.65,29.83-12.15,29.83-30.78
		C210.31,9.92,192.99,0,173.16,0H80.25C79,0,77.99,1.01,77.99,2.26V97.5c0,1.25,1.01,2.26,2.26,2.26h29.67
		c1.25,0,2.26-1.01,2.26-2.26V67.09c0-1.25,1.01-2.26,2.26-2.26h19.29c2.67,0,5.22,1.15,7,3.15L168.2,99
		c0.59,0.27,1.1,0.49,1.69,0.76h39.16c2.01,0,3.01-2.42,1.61-3.85L178.14,63L178.14,63z M165.76,42.48h-51.32
		c-1.25,0-2.26-1.01-2.26-2.26V25.79c0-1.25,1.01-2.26,2.26-2.26h50.58c7.26,0,11.99,3.56,11.99,9.18
		C177.01,39.22,172.57,42.47,165.76,42.48L165.76,42.48z"/>
	<path class="st0" d="M553.14,0h-29.66c-1.25,0-2.26,1.01-2.26,2.26v63.22c0,1.25,1.01,2.26,2.26,2.26h29.66
		c1.25,0,2.26-1.01,2.26-2.26V2.27C555.4,1.02,554.39,0,553.14,0z"/>
	<path class="st0" d="M553.14,81.22h-29.66c-1.25,0-2.26,1.01-2.26,2.26v14.03c0,1.25,1.01,2.26,2.26,2.26h29.66
		c1.25,0,2.26-1.01,2.26-2.26V83.48C555.4,82.23,554.39,81.22,553.14,81.22z"/>
	<path class="st0" d="M675.31,96.78l-38.17-50.54c-0.86-1.13-0.78-2.7,0.17-3.75l36.05-39.54c1.03-1.13,0.23-2.95-1.3-2.95h-31.19
		c-0.83,0-1.62,0.35-2.17,0.96l-34.81,38.26h-0.02c-0.11,0.12-0.27,0.22-0.46,0.22h-1.26c-0.33,0-0.59-0.27-0.6-0.59V2.09
		c0-1.15-0.93-2.08-2.08-2.08h-28.52c-1.15,0-2.08,0.93-2.08,2.08v95.48c0,1.06,0.86,1.91,1.91,1.91h28.85
		c1.06,0,1.91-0.86,1.91-1.91V79.8c0-0.74,0.29-1.46,0.79-2.01L615,64.24c0,0,0.11-0.17,0.37-0.17h1.71c0.21,0,0.33,0.17,0.33,0.17
		l25.52,34.06c0.55,0.74,1.43,1.18,2.35,1.18h28.66C675.35,99.47,676.15,97.89,675.31,96.78L675.31,96.78z"/>
	<path class="st0" d="M256.47,22.8h29.01c1.25,0,2.26-1.01,2.26-2.26V2.26c0-1.25-1.01-2.26-2.26-2.26h-60.02
		c-1.25,0-2.26,1.01-2.26,2.26V97.5c0,1.25,1.01,2.26,2.26,2.26h60.02c1.25,0,2.26-1.01,2.26-2.26V79.22c0-1.25-1.01-2.26-2.26-2.26
		h-29.22c-1.25,0-2.26-1.01-2.26-2.26V62.85c0-1.36,1.1-2.47,2.47-2.47h29.01c1.25,0,2.26-1.01,2.26-2.26V40.29
		c0-1.25-1.01-2.26-2.26-2.26h-29.01c-1.36,0-2.47-1.1-2.47-2.47V25.25c0-1.36,1.1-2.47,2.47-2.47V22.8z"/>
	<path class="st0" d="M334.46,22.8h29.01c1.25,0,2.26-1.01,2.26-2.26V2.26c0-1.25-1.01-2.26-2.26-2.26h-60.02
		c-1.25,0-2.26,1.01-2.26,2.26V97.5c0,1.25,1.01,2.26,2.26,2.26h60.02c1.25,0,2.26-1.01,2.26-2.26V79.22c0-1.25-1.01-2.26-2.26-2.26
		h-29.22c-1.25,0-2.26-1.01-2.26-2.26V62.85c0-1.36,1.1-2.47,2.47-2.47h29.01c1.25,0,2.26-1.01,2.26-2.26V40.29
		c0-1.25-1.01-2.26-2.26-2.26h-29.01c-1.36,0-2.47-1.1-2.47-2.47V25.25c0-1.36,1.1-2.47,2.47-2.47V22.8z"/>
	<path class="st0" d="M33.26,22.8h29.01c1.25,0,2.26-1.01,2.26-2.26V2.26c0-1.25-1.01-2.26-2.26-2.26H2.26C1.01,0,0,1.01,0,2.26
		V97.5c0,1.25,1.01,2.26,2.26,2.26h26.26c1.25,0,2.26-1.01,2.26-2.26l0.02-34.64c0-1.36,1.1-2.47,2.47-2.47h29.01
		c1.25,0,2.26-1.01,2.26-2.26V40.3c0-1.25-1.01-2.26-2.26-2.26H33.27c-1.36,0-2.47-1.1-2.47-2.47V25.26c0-1.36,1.1-2.47,2.47-2.47
		L33.26,22.8z"/>
	<path class="st0" d="M471.3,0h-89.83c-1.25,0-2.26,1.01-2.26,2.26V97.5c0,1.25,1.01,2.26,2.26,2.26h29.67
		c1.25,0,2.26-1.01,2.26-2.26V65.98c0-0.64,0.51-1.15,1.15-1.15h56.9c22.8,0,40.08-11.89,40.08-32.87C511.53,10.97,494.26,0,471.3,0
		L471.3,0z M466.98,42.48h-51.32c-1.25,0-2.26-1.01-2.26-2.26V25.79c0-1.25,1.01-2.25,2.26-2.25h50.58c7.26,0,11.99,3.55,11.99,9.18
		C478.23,39.23,473.79,42.48,466.98,42.48z"/>
</g>
</svg>
