<?xml version="1.0" encoding="utf-8"?>
<!-- Generator: Adobe Illustrator 29.5.0, SVG Export Plug-In . SVG Version: 9.03 Build 0)  -->
<svg version="1.0" id="katman_1" xmlns="http://www.w3.org/2000/svg" xmlns:xlink="http://www.w3.org/1999/xlink" x="0px" y="0px"
	 viewBox="0 0 484.27 93.9" style="enable-background:new 0 0 484.27 93.9;" xml:space="preserve">
<style type="text/css">
	.st0{fill:#E87CB4;}
</style>
<path class="st0" d="M192.28,85.3h-13.9V8.8h13.9V85.3z M253.28,85.3h-13.5v-5.6c-3.8,4.6-9.5,7.2-15.5,7
	c-14.2,0-24.9-11.7-24.9-27.1s10.7-27.3,24.9-27.3c6-0.2,11.7,2.4,15.5,7.1v-5.6h13.5V85.3z M213.48,59.5c0,7.9,5.2,14.2,13.3,14.2
	c8.1,0,13.3-6,13.3-14.2s-5.4-14.2-13.3-14.2s-13.1,6.4-13.1,14.2H213.48z M322.38,16.8c0,11.8-17.7,11.8-17.7,0
	c0-2.3,0.9-4.6,2.6-6.2c1.7-1.7,3.9-2.6,6.3-2.6c2.3,0,4.6,0.9,6.2,2.6C321.48,12.3,322.38,14.5,322.38,16.8L322.38,16.8z
	 M320.57,85.3h-14V33.7h14V85.3z"/>
<path class="st0" d="M171.38,21.9c-3.1-1.4-6.5-2-9.8-1.7c-3.9,0.5-6,2.5-6,7.2v6.3h16v12.4h-16v39.3h-13.9V46.1h-9.6V33.8h9.6v-6.5
	c0-12.2,6.4-20,18.4-20c3.9-0.1,7.8,0.7,11.4,2.2L171.38,21.9z"/>
<path class="st0" d="M288.77,73.7c-4.3,0-7.7-2.3-7.7-8.7V46.1h18.7V33.8h-18.7V18.4h-13.9v15.4h-7v12.3h7V66
	c0,13.4,6.5,20.6,19.3,20.6c4.6,0.1,9.2-1,13.3-3.1l-5.3-11.2C292.57,73.2,290.67,73.6,288.77,73.7L288.77,73.7z M428.48,59.5
	c0,15.5-11.9,27.1-27.9,27.1s-27.9-11.5-27.9-27.1s11.8-27.1,27.9-27.1C416.67,32.3,428.48,44,428.48,59.5L428.48,59.5z
	 M386.88,59.5c0,8.3,5.9,14.2,13.6,14.2s13.8-5.9,13.8-14.2c0-8.4-5.9-14.2-13.8-14.2s-13.5,5.9-13.5,14.2H386.88z M484.27,52.5
	v32.8h-14V56.9c0-7.5-3.7-11.5-10.1-11.5c-6.4,0-10.9,3.9-10.9,11.7v28.2h-13.8V33.7h13.5v6c3.7-5.5,9.3-7.5,15.1-7.5
	C475.87,32.3,484.27,40.6,484.27,52.5L484.27,52.5z"/>
<path class="st0" d="M365.98,68.4c-2.6,2.9-6.2,4.8-10.1,5.2h-1.1l-2.2-0.3c-4-0.7-7.4-3.2-9.1-6.9c-1-2.2-1.5-4.7-1.5-7.1
	c0-2.5,0.5-5,1.6-7.2c1.8-3.6,5.2-6.1,9.2-6.8h2.9c4,0.2,7.7,2.1,10.2,5.2l6.8-11.8c-2.9-2.5-6.3-4.3-9.9-5.3c-2.4-0.7-5-1-7.5-1
	c-3.1,0-6.2,0.4-9.2,1.3c-3.7,1.1-7,3.1-9.8,5.6c-5.5,5.2-8.5,12.6-8.4,20.1c-0.2,7.5,2.8,14.8,8.2,20c2.8,2.6,6.2,4.5,9.8,5.6
	c3.1,1,6.2,1.5,9.5,1.5c2.6,0,5.1-0.3,7.6-1c3.7-1,7.1-2.9,10-5.4L365.98,68.4z"/>
<path class="st0" d="M56.78,32.6h-23.8l-7.5-12.9h38.8L75.58,0h-64.1c-4.1,0-7.9,2.2-9.9,5.8c-2.1,3.6-2.1,8,0,11.5l40.9,70.9
	c2.1,3.5,5.9,5.7,10,5.7s7.9-2.2,9.9-5.7l1.3-2.3l-18.8-32.7L56.78,32.6z"/>
<path class="st0" d="M103.38,5.8c-2-3.6-5.8-5.8-10-5.8h-2.8l-30.7,53.2l11.3,19.7l32.2-55.6C105.38,13.7,105.38,9.3,103.38,5.8
	L103.38,5.8z"/>
</svg>
